<?xml version="1.0" encoding="UTF-8" standalone="no"?>
<!-- Created with Inkscape (http://www.inkscape.org/) -->

<svg
   xmlns:dc="http://purl.org/dc/elements/1.1/"
   xmlns:cc="http://creativecommons.org/ns#"
   xmlns:rdf="http://www.w3.org/1999/02/22-rdf-syntax-ns#"
   xmlns:svg="http://www.w3.org/2000/svg"
   xmlns="http://www.w3.org/2000/svg"
   xmlns:sodipodi="http://sodipodi.sourceforge.net/DTD/sodipodi-0.dtd"
   xmlns:inkscape="http://www.inkscape.org/namespaces/inkscape"
   width="156.19127mm"
   height="203.74216mm"
   viewBox="0 0 156.19127 203.74216"
   version="1.1"
   id="svg59"
   inkscape:version="0.92.3 (2405546, 2018-03-11)"
   sodipodi:docname="Sailor with sign.svg">
  <title
     id="title98">Sailor with sign</title>
  <defs
     id="defs53" />
  <sodipodi:namedview
     id="base"
     pagecolor="#ffffff"
     bordercolor="#666666"
     borderopacity="1.0"
     inkscape:pageopacity="0.0"
     inkscape:pageshadow="2"
     inkscape:zoom="0.42442319"
     inkscape:cx="1131.8903"
     inkscape:cy="251.63018"
     inkscape:document-units="mm"
     inkscape:current-layer="layer1"
     showgrid="false"
     inkscape:snap-global="false"
     fit-margin-top="0"
     fit-margin-left="0"
     fit-margin-right="0"
     fit-margin-bottom="0"
     inkscape:window-width="1920"
     inkscape:window-height="1017"
     inkscape:window-x="3832"
     inkscape:window-y="-8"
     inkscape:window-maximized="1" />
  <metadata
     id="metadata56">
    <rdf:RDF>
      <cc:Work
         rdf:about="">
        <dc:format>image/svg+xml</dc:format>
        <dc:type
           rdf:resource="http://purl.org/dc/dcmitype/StillImage" />
        <dc:title>Sailor with sign</dc:title>
        <cc:license
           rdf:resource="http://creativecommons.org/publicdomain/zero/1.0/" />
      </cc:Work>
      <cc:License
         rdf:about="http://creativecommons.org/publicdomain/zero/1.0/">
        <cc:permits
           rdf:resource="http://creativecommons.org/ns#Reproduction" />
        <cc:permits
           rdf:resource="http://creativecommons.org/ns#Distribution" />
        <cc:permits
           rdf:resource="http://creativecommons.org/ns#DerivativeWorks" />
      </cc:License>
    </rdf:RDF>
  </metadata>
  <g
     inkscape:label="Layer 1"
     inkscape:groupmode="layer"
     id="layer1"
     transform="translate(97.226915,75.517419)">
    <path
       style="fill:#000000;stroke-width:3.77952766"
       d="m -75.630859,-285.41992 c -2.198105,-0.006 -4.794284,0.0961 -8.216797,0.24023 -35.236614,1.4838 -57.355114,4.64435 -72.080074,10.29688 -2.33152,0.89501 -7.52663,4.39262 -8.98829,6.05078 -0.55627,0.63106 -4.16174,3.21444 -8.01171,5.74219 -3.85002,2.52774 -7.92667,5.22917 -9.0586,6.0039 -2.92429,2.00149 -10.03994,16.35675 -11.43164,23.06055 -0.95626,4.6054 -0.89627,7.02497 0.32422,13.00977 2.22701,10.92049 6.66602,16.72209 6.66602,8.71289 0,-7.73003 2.68952,-12.82993 10.01171,-18.97657 20.47677,-17.18935 32.37562,-25.02386 44.48829,-29.29687 4.79376,-1.69112 4.8619,-1.76675 1.66601,-1.83399 -5.58229,-0.11744 -19.36938,3.89127 -24.66601,7.17188 -2.75003,1.70328 -7.02498,4.74861 -9.5,6.76758 -2.47499,2.01897 -6.21905,4.48468 -8.32032,5.47851 -2.10123,0.99383 -5.13871,3.12508 -6.75,4.73633 -1.61125,1.61126 -2.92968,2.51004 -2.92968,1.99805 0,-1.48146 4.45757,-5.88977 7.61132,-7.52735 1.58809,-0.82459 3.8484,-2.80423 5.02149,-4.39843 1.96717,-2.67337 12.54357,-10.36817 18.32031,-13.32813 4.87865,-2.49977 12.72021,-3.94531 21.4668,-3.95703 6.94322,-0.009 9.33298,-0.38447 10.77929,-1.69336 1.45047,-1.31265 3.66392,-1.65558 10.08008,-1.56445 4.52126,0.0642 9.345713,0.53682 10.720706,1.05078 2.043326,0.76376 0.94728,1.08784 -5.999996,1.77539 l -8.5,0.8418 5.5,0.63086 c 30.74261,3.52719 35.943353,4.37613 42.999996,7.02148 4.25125,1.59369 6.488623,2.83664 5.166015,2.86914 -2.793033,0.0684 -2.462092,2.13783 0.560547,3.50586 1.153814,0.52221 2.482359,2.28723 2.951172,3.92187 0.919672,3.20672 3.322266,4.80727 3.322266,2.2129 0,-2.3348 3.504058,-1.97894 11.773437,1.19726 5.196623,1.99597 8.090945,3.81237 10.25,6.43164 l 3.007813,3.65039 -2.515625,2.71485 c -3.922167,4.23207 -3.574743,5.06276 4.984375,11.94531 l 3,2.41211 -3,-0.86524 c -1.649991,-0.47617 -7.351232,-2.90453 -12.667969,-5.39648 -10.166626,-4.7651 -27.566777,-9.6481 -41.794922,-11.72852 -12.945411,-1.89288 -47.169945,-0.70336 -57.537105,2 -18.19242,4.74387 -29.26146,10.48138 -39.28125,20.36133 -10.1452,10.00363 -11.85974,15.57701 -8.62696,28.04883 0.87595,3.37938 2.61184,12.2717 3.85742,19.75977 1.24559,7.48807 2.61304,14.17787 3.03907,14.86718 0.42599,0.6893 1.11658,2.66214 1.5332,4.38477 0.41662,1.72263 1.51329,4.8809 2.4375,7.01758 1.65403,3.82409 1.64677,3.87654 -0.39063,3.34375 -2.32976,-0.60927 -2.50203,0.002 -1.07031,3.76757 0.55234,1.45278 1.47272,2.33199 2.06055,1.96876 1.17086,-0.72363 6.94141,1.35128 6.94141,2.49609 0,0.39499 -1.12501,1.23092 -2.5,1.85742 -3.22833,1.47083 -3.16008,3.0654 0.25,5.85742 1.51249,1.23838 3.03434,2.26941 3.38281,2.28907 1.44593,0.082 1.46471,-4.18647 0.0742,-16.96485 -1.65948,-15.25005 -1.78668,-21.04992 -0.70899,-32.5 0.94519,-10.04218 1.67948,-11.5 5.78711,-11.5 3.69525,0 14.94544,-2.28629 18.88477,-3.83789 1.46831,-0.57832 10.6933,-1.28298 20.5,-1.56641 17.33953,-0.50118 24.795595,-1.29664 33.10156,-3.5332 2.217638,-0.59715 7.562383,-1.53138 11.878906,-2.07617 4.316561,-0.5448 11.621928,-1.93351 16.232422,-3.08594 7.077506,-1.76908 8.755638,-1.89566 10.783203,-0.81054 2.525821,1.35172 6.333985,6.73323 6.333985,8.95117 0,0.71708 2.791119,4.13102 6.203125,7.58789 6.100913,6.18114 9.546783,12.93806 9.730468,19.08203 0.101027,3.37651 3.962556,6.47089 7.191407,5.76172 2.237933,-0.49155 3.137554,0.006 5.423828,3.0039 1.507427,1.97636 3.238144,3.41188 3.845703,3.18946 0.6075962,-0.22243 1.8954319,0.28348 2.861328,1.125 0.9658583,0.84153 1.8825267,1.34493 2.0371094,1.11914 5.60741999,-8.20088 5.93560546,-8.9271 4.7128906,-10.40039 -0.6887433,-0.82989 -2.7712689,-1.50977 -4.6289062,-1.50977 -3.8036788,0 -4.0996768,-0.54531 -1.7226563,-3.17187 2.4136063,-2.66704 4.8720855,-2.24785 7.65234375,1.30468 1.38198425,1.76583 2.94093335,2.8316 3.57226565,2.44141 1.4882267,-0.91974 1.4388784,-11.77984 -0.068359,-15.08789 -0.9737574,-2.13715 -1.6509638,-2.49498 -3.75,-1.97852 -1.40889439,0.34667 -3.9331923,1.95055 -5.609375,3.5625 -2.7903118,2.68343 -5.4511719,3.81644 -5.4511719,2.32227 0,-0.33387 1.3800945,-3.49788 3.0664063,-7.03125 2.9976184,-6.28091 3.0337311,-6.53312 1.6269531,-11.33203 -0.7913953,-2.69965 -1.2251898,-6.03103 -0.9628906,-7.40235 0.262148,-1.37133 -0.5145814,-5.47324 -1.7265625,-9.11523 -3.0608133,-9.1978 -1.3056506,-19.8085 4.3964843,-26.57031 7.0466269,-8.35614 7.3438121,-16.44716 1.0078126,-27.47656 -3.411515,-5.93866 -4.5709662,-7.12057 -8.4316412,-8.5879 -7.18148,-2.72947 -16.739989,-6.70165 -27.476562,-11.41992 -5.499969,-2.41702 -12.699981,-5.33868 -16,-6.49218 -11.085704,-3.87514 -14.108813,-4.885 -20.703125,-4.9043 z m -22.234375,54.19922 c 9.898478,0.10691 18.942961,0.66384 21.9375,1.61523 l 3,0.95313 -2.75,0.0859 c -2.648731,0.0828 -4.049481,2.05618 -1.5,2.11329 2.404082,0.0538 14.06066,5.77725 14.929687,7.33007 0.662173,1.18328 -0.416303,2.79681 -4.402344,6.59375 -2.903055,2.76537 -5.614846,5.03302 -6.027343,5.03907 -0.412498,0.006 -0.75,0.40311 -0.75,0.88281 0,1.50635 7.313377,2.12075 13.021484,1.09375 3.01217,-0.54198 7.278528,-1.23645 9.478516,-1.54297 3.790601,-0.52816 3.894466,-0.47482 2.015625,1.03906 -3.251868,2.62021 -11.312367,4.52943 -23.515625,5.56641 -16.443515,1.3973 -41.872986,4.55795 -38.810546,4.82422 0.93003,0.0809 1.98917,0.62944 2.35351,1.21875 0.68096,1.10178 -16.0211,1.1724 -18.00781,0.0762 -1.36539,-0.75337 -38.74786,-0.4397 -44.91601,0.37695 -3.48477,0.46138 -5.99737,1.50407 -7.86914,3.26367 -1.98218,1.86336 -2.75,2.16266 -2.75,1.07227 0,-0.83203 1.125,-2.56958 2.5,-3.86133 1.37499,-1.29175 2.5,-2.85218 2.5,-3.4668 0,-2.26933 14.16747,-14.12105 18.68945,-15.63476 0.65446,-0.21907 2.24229,-1.97344 3.5293,-3.89844 1.57772,-2.35985 3.69543,-3.93216 6.5,-4.82617 2.58512,-0.82406 3.97707,-1.80162 3.67773,-2.58203 -0.78981,-2.05823 7.17564,-4.53262 20.10352,-6.2461 6.41153,-0.8498 17.16402,-1.19285 27.062496,-1.08593 z m 77.6875,14.75586 c 0.962494,-0.008 1.75,0.43437 1.75,0.98437 0,1.21961 -0.112807,1.21961 -2,0 -1.282054,-0.82844 -1.245559,-0.97115 0.25,-0.98437 z m -12.902344,13.77929 c 3.100548,-0.12466 8.701787,1.14616 10.449219,2.51367 1.063105,0.83202 1.063105,1.16351 0,1.8379 -1.562268,0.99101 -5.208161,1.10826 -6.119141,0.19726 -0.360605,-0.3606 -2.349396,-0.9294 -4.417969,-1.26562 -4.137108,-0.67246 -4.678626,-2.26148 -1.070312,-3.14063 0.322341,-0.0785 0.715267,-0.12477 1.158203,-0.14258 z m 14.652344,4.20508 c 0.549996,0 1,0.45 1,1 0,0.55 -0.450004,1 -1,1 -0.549997,0 -1,-0.45 -1,-1 0,-0.55 0.450003,-1 1,-1 z m -47.878907,31.6875 c -4.087109,0.05 -7.111968,0.7451 -12.173828,2.67578 -12.952063,4.94017 -18.917655,7.94255 -20.458984,10.29492 -1.355297,2.06843 -1.308337,2.59016 0.503906,5.5625 1.099843,1.80394 2.001903,4.23609 2.003906,5.40625 0.0051,2.88671 1.778025,4.14798 6.515625,4.63086 15.79457,1.60988 30.488282,0.18349 30.488282,-2.95898 0,-0.71451 0.400748,-1.29883 0.892578,-1.29883 0.49183,0 2.304295,-1.31621 4.027344,-2.92578 1.723043,-1.60957 4.527451,-3.23336 6.230468,-3.60742 3.085455,-0.67768 9.84961,-4.22008 9.84961,-5.15821 0,-0.27136 -0.900007,-1.63673 -2,-3.03515 -2.197947,-2.79422 -2.658851,-4.79831 -0.845704,-3.67774 0.640819,0.3961 0.884451,0.27919 0.548829,-0.26367 -1.261871,-2.04173 -15.431337,-5.39979 -23.75586,-5.6289 -0.636241,-0.0175 -1.242299,-0.0228 -1.826172,-0.0156 z m -46.312499,14.16016 -12.08984,0.29101 c -17.02118,0.40767 -27.04534,2.85587 -32.47852,7.9336 -3.6596,3.42019 -3.58534,3.14959 -2.2207,8.0625 1.12225,4.04032 3.34562,5.30265 11.17578,6.3457 3.91925,0.52209 5.03662,0.28567 6.75,-1.42773 1.12932,-1.1293 2.98297,-2.05274 4.11914,-2.05274 1.13616,0 2.90371,-0.44808 3.92773,-0.99609 1.96868,-1.05361 5.00782,-0.39236 5.00782,1.08984 0,1.20613 -6.69253,3.90625 -9.68165,3.90625 -1.56282,0 -2.18609,0.40706 -1.73632,1.13477 1.09852,1.7775 14.65959,0.27521 19.12695,-2.11914 2.06751,-1.10813 4.27343,-2.01563 4.90234,-2.01563 1.95009,0 3.25485,-5.17959 3.22461,-12.82617 z m 36.630859,4.15234 c 0.857461,0 1.560547,0.45 1.560547,1 0,0.55 -0.423876,1 -0.941407,1 -0.517568,0 -1.218814,-0.45 -1.558593,-1 -0.339931,-0.55 0.08199,-1 0.939453,-1 z m 14.710937,1.18164 c 2.661527,0.16072 2.51931,1.33241 -0.574218,3.35938 -1.332397,0.87302 -4.93239,1.84745 -8,2.16406 -4.766778,0.49198 -5.576172,0.33286 -5.576172,-1.08984 0,-2.04151 3.397704,-3.41011 10.560546,-4.25196 1.504734,-0.17685 2.702669,-0.23521 3.589844,-0.18164 z m 61.27539087,10.93164 c -0.13671555,-0.0117 -0.30078833,0.0117 -0.48828125,0.0742 -0.72188972,0.24062 -1.50924412,1.02812 -1.75000002,1.75 -0.2499779,0.75001 0.1249906,1.12498 0.875,0.875 0.72185209,-0.24063 1.50924417,-1.02813 1.75000002,-1.75 0.18748347,-0.56251 0.0234279,-0.91407 -0.38671875,-0.94922 z m -65.42578087,0.0156 c -0.453118,0 -0.906252,0.0703 -1.25,0.20898 -0.687534,0.27739 -0.12503,0.50391 1.25,0.50391 1.375067,0 1.937533,-0.22649 1.25,-0.50391 -0.343748,-0.13871 -0.796882,-0.20898 -1.25,-0.20898 z m -11.445313,19.16406 c -0.934106,0.0336 -1.139428,0.81485 -1.304687,3.16406 -0.276851,3.93307 0.255731,4.2988 2.847656,1.95313 1.123464,-1.01672 2.291837,-1.28712 3.240234,-0.75 1.950123,1.1044 7.569282,6.34493 10.451172,9.74609 1.73057,2.04255 2.830961,2.53616 4.5,2.02344 1.21508,-0.37328 2.383672,-0.83393 2.595703,-1.02344 0.749292,-0.66981 -2.950278,-5.40625 -4.222656,-5.40625 -0.709946,0 -4.295578,-2.01504 -7.96875,-4.47851 -3.673172,-2.46347 -7.695812,-4.73267 -8.9375,-5.04297 -0.498945,-0.12469 -0.889803,-0.19675 -1.201172,-0.18555 z m 64.869141,0.14648 c -0.313158,0.0406 -0.423828,0.32356 -0.423828,0.85938 0,0.75268 0.299401,1.6685 0.666015,2.03516 0.833008,0.83304 5.6402557,0.86893 7.7519534,0.0586 2.7953381,-1.07268 1.7188985,-2.58235 -1.359375,-1.90625 -1.6177134,0.35531 -3.867765,0.15089 -5.0000004,-0.45508 -0.806041,-0.43137 -1.321608,-0.63237 -1.634765,-0.5918 z m -24.257813,3.6504 c -0.230627,0.0437 -0.439931,0.50349 -0.777343,1.41015 -0.945599,2.54086 -2.307882,3.4651 -5.138672,3.48438 -2.169109,0.0148 -2.902674,1.03091 -1.648438,2.28515 0.331578,0.33155 1.757676,0.16511 3.167969,-0.37109 1.741531,-0.66213 2.774745,-0.63297 3.222656,0.0918 1.112693,1.80035 3.156987,-3.89952 2.083985,-5.81055 -0.427597,-0.76158 -0.67953,-1.13358 -0.910157,-1.08984 z m -45.492187,8.67382 c -0.542296,-0.009 -1.250858,0.0326 -2.173828,0.10352 -2.199988,0.16894 -5.497776,1.22642 -7.328125,2.34961 -2.00213,1.22863 -6.752707,2.496339 -11.923831,3.181639 -4.72728,0.626479 -8.76598,1.651859 -8.97461,2.277343 -0.6226,1.867851 5.61512,8.169482 8.52539,8.613282 7.708446,1.17549 10.91021,0.704174 14.91016,-2.19336 4.413279,-3.19697 8.110789,-8.470763 8.523438,-12.156254 0.184303,-1.64603 0.06829,-2.14763 -1.558594,-2.17578 z m 38.857422,0.37891 c -0.427422,0.062 -0.533203,0.8156 -0.533204,2.29297 0,1.3392 -0.465795,3.663345 -1.037109,5.166014 -0.78274,2.05923 -0.721338,2.93451 0.25,3.550781 2.056214,1.30458 2.54845,1.033747 4.214844,-2.306641 2.008327,-4.02576 1.981714,-4.436264 -0.427735,-6.845704 -1.290306,-1.29031 -2.039374,-1.91938 -2.466796,-1.85742 z m 13.976562,2.57227 c -0.378068,0.0325 -0.262553,0.48925 0.02539,1.39648 0.456,1.436653 0.105184,1.888671 -1.466797,1.888671 -1.416,0 -2.06836,0.644052 -2.06836,2.044922 0,1.795899 -0.42679,1.965209 -3.5,1.388672 -3.427609,-0.643011 -4.085543,0.01831 -3.666015,3.669922 0.03817,0.331279 0.177949,2.468779 0.3125,4.75 0.134589,2.281221 0.608312,4.202772 1.050781,4.271484 0.442468,0.06875 1.361079,0.181288 2.041016,0.25 1.701959,0.172082 2.182153,3.414997 0.759765,5.128907 -0.64267,0.774484 -0.838078,1.945157 -0.433593,2.599609 0.908296,1.469639 -3.560677,9.896484 -5.248047,9.896484 -2.08698,0 -2.820748,-7.051766 -1.054688,-10.128906 1.843276,-3.21171 1.537414,-3.746111 -1.783203,-3.111328 -1.557392,0.297717 -2.476562,1.151518 -2.476562,2.298828 0,1.003423 -0.48087,2.121276 -1.06836,2.484375 -0.587452,0.363099 -0.80639,1.346465 -0.484375,2.185547 0.321978,0.839078 0.0741,2.143148 -0.552734,2.898437 -0.626646,0.75529 -0.747427,1.380735 -0.267578,1.388672 0.479849,0.0084 0.201243,0.440312 -0.619141,0.958985 -1.111975,0.703128 -1.203129,1.230466 -0.357422,2.076171 1.385348,1.385371 0.182227,3.962605 -4.052734,8.683594 -4.083817,4.552551 -13.597656,9.011728 -13.597656,6.373047 0,-2.20117 -3.594927,-1.949489 -7.861328,0.550781 -3.8592,2.261632 -5.685472,2.675422 -11.353516,2.570313 -5.812914,-0.107792 -7.159861,0.215131 -9.664063,2.322265 -3.218721,2.708368 -8.218438,3.242933 -10.021478,1.070313 -0.62967,-0.75871 -2.44952,-1.640295 -4.04297,-1.958984 -1.75408,-0.350812 -3.1603,-1.413801 -3.56641,-2.69336 -0.40558,-1.277892 -1.22967,-1.899346 -2.08203,-1.572265 -0.7753,0.29752 -1.4082,0.104997 -1.4082,-0.427735 0,-0.532739 0.47613,-0.96875 1.05859,-0.96875 0.58254,0 0.75799,-0.485509 0.39062,-1.080078 -0.36748,-0.59452 -1.65625,-0.834179 -2.86328,-0.53125 -1.41184,0.35435 -2.74947,-0.09874 -3.75195,-1.269531 -0.85701,-1.000929 -3.30881,-2.119109 -5.44727,-2.486328 -2.91431,-0.500421 -4.3913,-1.474325 -5.90039,-3.888672 -1.10736,-1.771623 -2.86146,-3.384657 -3.89648,-3.583984 -1.62505,-0.312949 -1.79445,0.07459 -1.24219,2.835937 0.35176,1.758818 1.89499,5.067163 3.42774,7.351563 1.53275,2.284398 3.62702,5.936539 4.65429,8.117187 1.0272,2.18064 2.89904,5.105642 4.16016,6.5 1.26115,1.39435 4.16039,4.654441 6.44141,7.244141 2.41084,2.73708 7.24869,6.411043 11.55664,8.77539 6.65956,3.65506 9.176582,6.015625 6.41211,6.015625 -2.23299,0 -0.74482,1.639758 3.564448,3.925781 3.787804,2.0094153 4.47049,2.797225 4.009765,4.632813 -0.339326,1.3520428 0.0496,2.7151495 1,3.5039062 1.069985,0.8879131 1.470285,2.66889781 1.283204,5.7109376 -0.211541,3.4395887 0.218507,4.9308651 1.935546,6.7148437 1.213947,1.2613115 2.207032,2.6311285 2.207032,3.0429685 0,1.244708 3.368573,3.397591 5.5,3.515625 1.591672,0.08814 1.438535,0.315914 -0.75,1.115235 -3.911093,1.428449 -3.409267,2.554122 1.5,3.363281 7.635061,1.25845 7.670711,2.413186 0.07617,2.445312 -6.087723,0.02581 -7.601064,-0.325583 -10,-2.320312 -1.554709,-1.292742 -5.976177,-3.59421 -9.826165,-5.113281 -7.46635,-2.945949 -13.37104,-7.1633132 -20.28516,-14.494141 -6.77768,-7.1861589 -9.203,-12.032635 -10.7207,-21.408203 -1.78795,-11.045042 -3.32977,-16.634766 -4.58789,-16.634766 -0.55907,0 -2.13473,2.3625 -3.5,5.25 -4.512,9.542568 -6.29136,11.32052 -15.40625,15.375 -25.78052,13.575335 -52.21221,27.232211 -75.63672,42.660157 -18.96513,14.712846 -43.73455,39.096604 -49.36328,68.835937 -3.48455,9.382885 -8.01623,18.987325 -11.45899,28.720705 -1.87007,5.34873 -4.54101,21.57368 -4.54101,27.58008 0,5.40904 -0.31355,5.29919 15.5,5.43359 6.6,0.0561 20.77498,0.54164 31.5,1.07812 10.72497,0.53654 51.73728,1.271 91.13867,1.63282 l 71.638666,0.6582 3.169922,-2.34375 c 4.04504,-2.99063 10.208533,-3.02096 13.353516,-0.0664 2.036447,1.91315 3.504926,2.07806 19.699219,2.22266 9.624453,0.0859 19.749978,0.30006 22.5,0.47656 5.162267,0.33132 113.300267,2.188 174.953127,3.00391 29.44607,0.38969 35.19369,0.70151 36.46875,1.97656 1.35145,1.35145 1.29948,1.7298 -0.49609,3.52539 -1.78523,1.7852 -3.3541,2.01526 -13.96875,2.05078 -25.36105,0.0848 -60.00353,-0.62225 -60.97071,-1.24414 -0.95206,-0.61221 -16.977015,-1.10233 -75.486327,-2.30664 -13.474999,-0.27736 -63.425014,-0.73885 -111,-1.02734 -47.574993,-0.28847 -103.600003,-0.76906 -124.499993,-1.06836 l -38,-0.54492 3.25585,2.63867 c 1.79093,1.45098 3.75723,3.61558 4.3711,4.81055 0.77291,1.50446 -0.0744,1.05946 -2.75586,-1.44727 -5.18589,-4.84801 -6.64344,-5.50209 -11.27344,-5.06055 -3.34318,0.31881 -3.90552,0.70181 -3.70898,2.52735 0.34858,3.23987 3.60339,7.65234 5.64453,7.65234 3.46866,0 4.68348,-1.02577 4.20117,-3.54883 -0.2829,-1.4798 -10e-4,-2.45117 0.71094,-2.45117 0.64853,0 1.03915,1.00438 0.86719,2.23047 -0.25089,1.78746 0.28198,2.33764 2.6875,2.78125 2.1273,0.3923 2.91333,1.05354 2.70507,2.27148 -0.16161,0.94467 0.14929,1.7168 0.68946,1.7168 0.5402,0 0.89652,1.2375 0.79297,2.75 -0.17057,2.49163 0.14136,2.76261 3.3125,2.87305 5.23385,0.18228 5.636,0.31968 4,1.37695 -0.825,0.53316 -3.38639,0.97644 -5.69141,0.98438 -2.30506,0.008 -4.46881,0.46562 -4.80859,1.01562 -0.68792,1.11306 -13.53448,1.22325 -20.48829,0.17578 -3.40493,-0.5129 -4.57244,-1.15805 -4.8457,-2.67578 -0.6398,-3.5528 -1.90643,-3.75039 -3.77344,-0.58984 -1.58823,2.6887 -2.38162,3.08984 -6.10937,3.08984 -3.61773,0 -4.2832,-0.31121 -4.2832,-2 0,-1.1 -0.63879,-2 -1.41797,-2 -0.77915,0 -1.59279,-0.5284 -1.8086,-1.17578 -0.21796,-0.65388 -0.9388,-0.8389 -1.62304,-0.41602 -0.67677,0.41867 -0.97014,1.58437 -0.65039,2.5918 0.81819,2.57785 -0.73201,3.18313 -5.44141,2.125 -3.94435,-0.88623 -7.95736,-4.32469 -8.02539,-6.875 -0.0183,-0.6875 -0.82071,-1.24231 -1.7832,-1.23437 -2.04394,0.0179 -5.46925,1.94456 -3.5,1.96875 1.57504,0.0193 1.21435,1.90917 -0.80079,4.20117 -1.11137,1.26405 -2.66705,1.66573 -5.5,1.42187 -2.17266,-0.187 -4.51172,0.10455 -5.19921,0.64844 -0.82496,0.65246 -1.67505,0.64829 -2.5,-0.0117 -0.6875,-0.55003 -2.26251,-1.31007 -3.5,-1.68945 -1.90269,-0.58326 -2.25,-0.31711 -2.25,1.72461 0,1.51581 0.83747,2.81877 2.25,3.5 l 2.25,1.08594 -2.22071,0.0664 c -1.35832,0.0414 -3.08042,-1.09612 -4.4375,-2.93164 -1.21988,-1.65 -2.8097,-3 -3.53125,-3 -0.72158,0 -1.31054,-0.44371 -1.31054,-0.98633 0,-0.54262 -1.63075,-1.66756 -3.62305,-2.5 -2.85249,-1.19186 -3.3855,-1.79988 -2.50781,-2.85742 0.8663,-1.04386 0.53647,-1.60641 -1.48047,-2.52539 l -2.59375,-1.18164 2.64062,-2.07813 c 1.99503,-1.56924 3.45791,-1.92574 5.9668,-1.45507 3.40928,0.63959 7.12658,3.72106 5.93164,4.91601 -0.3679,0.36789 0.0814,0.66797 0.99805,0.66797 0.91668,0 1.66797,-0.43601 1.66797,-0.96875 0,-0.53274 0.675,-0.70915 1.5,-0.39258 1.3861,0.5319 2.08591,-1.28014 1.56445,-4.04687 -0.54977,-2.91695 7.35439,-3.45869 10.37109,-0.71094 2.0242,1.84377 13.03879,3.69715 12.00196,2.01953 -0.27187,-0.43989 0.44709,-1.30416 1.59765,-1.91992 2.4528,-1.31271 4.96485,0.19191 4.96485,2.97461 0,2.7058 0.91373,2.9793 4.69726,1.39844 4.14248,-1.73083 6.30274,-1.19763 6.30274,1.55664 0,2.53523 1.4433,3.4044 3.70898,2.23242 0.98487,-0.50945 2.96418,-1.38747 4.39844,-1.94922 1.802,-0.70576 2.80827,-2.02573 3.25781,-4.27344 l 0.65039,-3.25195 2.30469,2.16406 c 1.90635,1.79093 2.58226,1.94851 3.92187,0.91602 2.46165,-1.89741 2.62294,-5.10042 0.28125,-5.57813 -1.08631,-0.22159 -2.45544,-1.05976 -3.04297,-1.86328 -0.88168,-1.20575 -4.95727,-1.46119 -23.33398,-1.45703 -14.89999,0.003 -22.71031,0.37294 -23.60937,1.11914 -0.99905,0.82913 -1.45016,0.79599 -1.75782,-0.12695 -0.52921,-1.58754 -28.00723,-2.12187 -32.02929,-0.62305 -3.22477,1.20172 -3.32454,2.22464 -1.58985,16.33984 0.8168,6.64636 1.55693,9.44141 2.5,9.44141 0.73686,0 1.33985,0.45 1.33985,1 0,0.55 -0.36643,1 -0.81446,1 -0.4481,0 -0.68451,5.5125 -0.52539,12.25 0.31306,13.25458 -0.28533,15.27962 -4.69922,15.90235 -2.06249,0.29091 -2.41111,0.81901 -2.14843,3.26171 0.42965,3.99257 3.50032,9.74645 7.14843,13.39453 2.53883,2.53883 3.0414,3.83226 3.05274,7.86524 0.008,2.6548 0.57063,5.90053 1.25,7.21289 1.62621,3.14129 11.85413,6.58072 22.34179,7.51367 5.88817,0.52379 8.84716,1.32875 11.64454,3.16602 4.13155,2.71353 4.49218,4.09364 2.22265,8.48242 -1.17607,2.27434 -2.21425,2.95117 -4.53125,2.95117 -3.79755,0 -4.82809,-2.39052 -2.66015,-6.16797 0.89397,-1.55737 1.458,-2.83203 1.2539,-2.83203 -0.83002,0 -11.1413,5.35638 -12.53515,6.51172 -2.45556,2.03536 -13.4184,3.52919 -17.20704,2.34375 -1.81107,-0.56667 -6.76662,-1.12202 -11.01171,-1.23242 -6.19125,-0.161 -8.30967,-0.63819 -10.70899,-2.41211 -3.81876,-2.82332 -5.07226,-2.79073 -5.07226,0.12695 0,1.76447 1.69623,3.50565 6.92578,7.11133 l 6.92578,4.77539 9.32422,-0.66406 c 17.49331,-1.24552 28.86673,-2.66462 32.97265,-4.11328 5.84262,-2.06141 14.14482,-1.90489 16.05469,0.30273 2.28843,2.6452 2.81315,6.09113 1.17578,7.72852 -2.26771,2.26771 -8.47074,3.10886 -9.49023,1.28711 -0.73909,-1.32065 -1.92971,-1.2259 -9.61719,0.75781 -12.59305,3.24957 -12.59646,3.2515 -12.20898,7.10351 0.14675,1.45886 -4.6646,3.00091 -6.87891,2.20508 -3.80538,-1.36766 -7.06233,-0.95332 -9.18359,1.16797 -2.39403,2.394 -7.24357,2.61868 -9.06836,0.41992 -0.82723,-0.99668 -2.25607,-1.3963 -3.8711,-1.08203 -2.43617,0.47406 -8.91307,-1.80004 -10.13476,-3.55859 -0.3154,-0.45404 -1.63164,-1.03008 -2.92578,-1.2793 -1.29415,-0.24923 -2.7176,-1.02618 -3.16211,-1.72656 -1.59024,-2.50568 -0.84524,4.40701 0.76953,7.14062 1.21323,2.05384 3.72888,3.48395 10.25,5.83008 11.76593,4.23305 14.20593,4.49759 25.65234,2.7793 6.00813,-0.90191 10.28531,-1.12874 10.83985,-0.57422 1.45858,1.45863 -0.0861,4.05078 -2.41407,4.05078 -1.16984,0 -3.32137,0.83768 -4.78125,1.86133 -1.45992,1.02366 -4.30252,2.3959 -6.3164,3.04883 -2.01385,0.65295 -3.91223,1.84024 -4.21875,2.63867 -0.8871,2.31171 -6.39254,1.72637 -10.05664,-1.06836 -1.81633,-1.38535 -3.95764,-2.26679 -4.75977,-1.95898 -0.80217,0.30779 -2.77354,0.0334 -4.38086,-0.60938 -1.60736,-0.64281 -4.60939,-1.50047 -6.67187,-1.90625 -4.18935,-0.82422 -4.74739,0.1273 -2.20313,3.75977 0.85145,1.21561 2.11625,3.85006 2.81055,5.85546 l 1.26172,3.64649 6.4414,0.16797 c 6.88222,0.17858 10.93946,1.70856 10.93946,4.125 0,3.1573 -9.1429,4.00963 -12.73829,1.1875 -0.6805,-0.53428 -1.91797,-0.71 -2.75,-0.39063 -2.80792,1.07751 -2.00679,14.16699 1.43946,23.51367 5.21469,14.143 12.04961,25.98043 16.33594,28.29297 1.21669,0.65643 5.13791,2.18146 8.71289,3.38868 6.45781,2.18067 6.50364,2.22219 7.17382,6.57031 0.63156,4.09735 2.72826,23.8405 3.4043,32.05273 0.16645,2.0219 0.98248,7.8719 1.8125,13 0.83002,5.12814 1.78843,11.7992 2.13086,14.82422 1.01794,8.99822 1.11671,9.15382 5.30469,8.39844 4.90159,-0.88411 7.24925,-2.14056 9.80468,-5.24805 1.83572,-2.23222 2.35654,-2.40458 3.75,-1.24804 1.06549,0.88439 1.61915,0.95975 1.61915,0.2207 0,-2.6024 3.84042,-1.01524 4.90039,2.02539 1.55901,4.47129 1.38877,5.16066 -1.11524,4.50586 -2.3712,-0.62011 -5.78515,1.71222 -5.78515,3.95117 0,0.7124 -0.7231,1.69956 -1.60547,2.19336 -0.88237,0.49379 -1.71059,2.24174 -1.83985,3.88476 -0.12926,1.64308 -0.5456,3.49028 -0.92578,4.10547 -0.38022,0.61516 -0.39938,2.28136 -0.043,3.70118 l 0.64844,2.58007 -3.61719,-2.13281 c -4.0998,-2.41893 -4.50259,-3.47202 -1.61718,-4.22656 1.44408,-0.37761 2,-1.3643 2,-3.54883 0,-4.01189 -4.36409,-7.33905 -7.89258,-6.01758 -2.31806,0.86812 -2.37179,1.13254 -1.77149,8.625 0.34065,4.25144 0.74096,8.63048 0.89063,9.73047 0.0311,0.22876 0.0459,0.42928 0.0176,0.60938 h 507.11523 c 0.28436,-1.27462 0.70136,-2.98397 1.18945,-4.81055 1.8731,-7.00978 1.22662,-19.95087 -1.56445,-31.29883 -1.42171,-5.7806 -1.91764,-12.31429 -2.16406,-28.5 l -0.32031,-21 6,-0.10742 c 5.16771,-0.0928 13.00028,-1.04198 23.77148,-2.87891 l 2.76953,-0.47265 c 0.35084,5.86333 1.24414,-119.42299 1.24414,-181.06446 -0.36083,-0.12085 -2.63685,-2.25449 -5.18359,-4.86914 -2.62167,-2.69158 -6.56008,-5.81049 -8.75391,-6.92968 -3.20836,-1.6368 -4.23874,-2.87956 -5.26367,-6.35547 -0.70084,-2.37673 -2.52601,-6.57227 -4.05664,-9.32227 -1.53063,-2.75 -2.56245,-5.60186 -2.29297,-6.33789 1.04561,-2.85391 -2.08953,-13.99336 -5.87695,-20.88476 -3.56791,-6.49207 -4.05891,-8.263 -4.86524,-17.5 C 169.61275,99.895702 163.48413,39.842759 126.02929,16.726562 123.57751,15.245647 121.5703,13.454853 121.5703,12.746094 98.518002,-6.7992869 16.229894,-12.429217 -0.31640625,-44.580078 -3.1306803,-50.24788 -9.1179368,-56.945113 -13.132812,-58.916016 c -4.822149,-2.367197 -4.98242,-3.186849 -3.371094,-17.089843 0.508271,-4.385579 1.192287,-11.79961 1.521484,-16.47461 l 0.59961,-8.500001 -2.107422,2.750001 c -2.41081,3.147799 -4.535508,3.541619 -5.396485,1 -0.326022,-0.962498 -2.170841,-2.486995 -4.099609,-3.388671 -1.683874,-0.78718 -2.555526,-1.17897 -2.933594,-1.14648 z m -33.894531,10.29687 c -1.105935,0.03971 -2.48891,0.514752 -3.912109,1.447266 -1.313424,0.860609 -6.042834,1.713665 -11.527344,2.078125 -5.115402,0.339923 -10.832549,1.258627 -12.705078,2.041015 -1.87253,0.782393 -4.488267,1.421875 -5.8125,1.421875 -1.324233,0 -5.043956,1.165057 -8.265626,2.589844 -4.35659,1.926739 -6.80782,2.438857 -9.56445,1.998047 -3.9154,-0.62609 -5.42403,0.414925 -4.41406,3.046875 0.46547,1.213119 1.49295,1.393458 4.83984,0.847656 4.84456,-0.790038 22.527132,-4.811964 30.812499,-7.007812 3.061115,-0.811272 6.932258,-1.47461 8.601562,-1.47461 1.66938,0 4.339011,-0.413447 5.933594,-0.917969 1.594545,-0.504524 4.137899,-1.186642 5.650391,-1.517578 1.872,-0.40961 2.75,-1.235494 2.75,-2.583984 0,-1.350478 -0.964803,-2.019811 -2.386719,-1.96875 z m -8.246094,13.349609 c -1.760431,-0.04563 -4.634025,0.711758 -9.173828,2.166016 -4.781329,1.53162 -12.068345,3.110093 -16.193359,3.507813 -8.032966,0.774503 -10.999996,1.616093 -10.999996,3.121093 0,2.777019 3.32453,6.880342 6.26171,7.726563 5.456302,1.572 18.877675,-1.22207 27.140629,-5.650391 4.587137,-2.458348 5.128523,-3.107886 5.408203,-6.490234 0.242852,-2.936161 -0.179947,-4.322189 -2.443359,-4.38086 z m 51.048828,22.101563 c 1.081062,0.114305 1.798994,2.142127 2.46875,6.378906 0.449802,2.84544 1.601757,6.04017 2.560547,7.09961 2.521928,2.786693 4.45912,8.863237 4.509766,14.148437 0.10662,11.152359 -11.259328,24.7463398 -27.314453,32.6679688 -4.728755,2.3331812 -9.000056,4.2421874 -9.492188,4.2421874 -2.099112,0 -9.982451,4.1257528 -10.509765,5.4999998 -0.593802,1.547331 -1.237176,1.706033 -3.388672,0.837891 -2.214123,-0.893428 -1.344749,-3.3186 2.703125,-7.5312501 2.174891,-2.263423 4.233751,-5.3886338 4.576171,-6.94726565 0.34235,-1.55862805 1.652065,-3.64513405 2.910157,-4.63476565 1.258091,-0.9896164 3.035442,-3.2446497 3.949219,-5.0117187 0.913809,-1.7670799 2.100819,-3.2128909 2.636718,-3.2128909 0.535862,0 0.97461,-0.88601 0.97461,-1.96875 0,-1.282949 -0.491467,-1.780288 -1.410157,-1.427734 -1.886664,0.724029 -2.996897,-2.976434 -1.648437,-5.496094 0.579364,-1.082528 2.518022,-2.991346 4.30664,-4.242187 1.788624,-1.25083 4.904831,-3.818704 6.925782,-5.705078 3.229341,-3.0143 3.532189,-3.685692 2.5,-5.544922 -0.645959,-1.163529 -1.576567,-2.407225 -2.06836,-2.763672 -0.491792,-0.356463 1.638047,-3.199138 4.732422,-6.31836 3.094413,-3.11921 6.546219,-6.842391 7.671875,-8.273437 0.978803,-1.244356 1.757613,-1.865458 2.40625,-1.796875 z M -313.89062,170.56836 c -0.57317,-0.0265 -0.38167,0.43354 0.46289,1.45117 1.37964,1.66238 3,1.99065 3,0.60742 0,-0.49116 -0.71203,-1.16615 -1.58204,-1.5 -0.91734,-0.35202 -1.53701,-0.54272 -1.88085,-0.55859 z m -13.59766,4.95117 c -0.58235,0 -0.77923,0.45 -0.43945,1 0.33993,0.55 0.81594,1 1.05859,1 0.24253,0 0.44141,-0.45 0.44141,-1 0,-0.55 -0.47813,-1 -1.06055,-1 z m 88.06445,0.0762 c -0.44313,-0.004 -0.88279,0.37498 -1.64062,1.13282 -0.90025,0.9002 -1.36618,2.34524 -1.03321,3.21289 0.77216,2.01209 3.05264,2.02546 4.71094,0.0273 1.06273,-1.28057 0.9977,-1.83822 -0.37695,-3.21289 -0.7705,-0.77042 -1.21703,-1.1565 -1.66016,-1.16016 z m 419.42188,0.0371 c 0.4101,0.0352 0.57409,0.38672 0.38672,0.94922 -0.24065,0.72187 -1.02815,1.50936 -1.75,1.75 -0.7499,0.25 -1.12483,-0.125 -0.875,-0.875 0.2406,-0.72187 1.02811,-1.50936 1.75,-1.75 0.18747,-0.0625 0.35158,-0.0859 0.48828,-0.0742 z m -494.82422,4.88281 c -1.95098,0.0919 -3.60156,0.61398 -3.60156,1.50391 0,1.71382 2.55179,2.03247 3.53515,0.44141 0.37746,-0.61076 1.9883,-0.79673 3.8086,-0.43946 2.35899,0.46303 2.77786,0.35589 1.65625,-0.42578 -1.19611,-0.83358 -3.44747,-1.17194 -5.39844,-1.08008 z m 66.34961,2.00391 c -2.10505,0 -3.35751,1.53354 -2.45117,3 0.67547,1.09296 3.80839,1.35759 4.76367,0.40235 1.10324,-1.10321 -0.45948,-3.40235 -2.3125,-3.40235 z m 26.04883,1 c 0.54999,0 1,0.45 1,1 0,0.55 -0.45001,1 -1,1 -0.55,0 -1,-0.45 -1,-1 0,-0.55 0.45,-1 1,-1 z m 371.16992,19.45313 c 0.50127,0.26562 0.85519,4.86513 0.89062,11.73828 0.034,6.76996 0.41965,15.68359 0.85547,19.80859 h -0.002 c 0.43702,4.125 0.42188,8.175 -0.0312,9 -0.73244,1.33333 -0.83987,1.33333 -0.98047,0 -0.0869,-0.825 -0.30321,-2.625 -0.48047,-4 -0.8959,-6.95075 -1.17725,-36.03383 -0.35352,-36.54297 0.0347,-0.0214 0.0681,-0.0216 0.10157,-0.004 z m -467.44531,5.70701 c 1.29951,-0.0136 1.51306,0.84607 0.33007,2.27148 -1.61064,1.94069 -0.52174,3.56836 2.38672,3.56836 1.59115,0 2.48722,0.70977 2.83985,2.25 0.28338,1.2375 1.11786,3.73269 1.85351,5.54492 1.14837,2.82868 1.1255,3.42767 -0.15039,4.23438 -1.93296,1.22216 -2.01322,1.21108 -5.20703,-0.76953 -2.7377,-1.69777 -3.46965,-5.3414 -1.58399,-7.87696 0.48889,-0.65736 0.20814,-1.6346 -0.68164,-2.37304 -0.83176,-0.69031 -1.51367,-1.87516 -1.51367,-2.63282 0,-0.75765 -0.45,-1.37695 -1,-1.37695 -1.82456,0 -1.03367,-1.85379 1.07617,-2.52344 0.66258,-0.21029 1.21721,-0.31186 1.6504,-0.3164 z m -1.0254,18.83984 c 0.45015,0 1.3903,0.91694 2.08985,2.03711 0.69955,1.12018 2.41208,2.47053 3.80469,3 2.10372,0.79977 2.47916,1.5123 2.21875,4.21289 -0.26125,2.7096 -0.73316,3.25942 -2.83789,3.30274 -1.38883,0.0286 -3.04593,0.37273 -3.68165,0.76562 -1.49185,0.92214 -2.47675,-0.67837 -1.68554,-2.74023 0.3383,-0.88164 0.0833,-2.24451 -0.56641,-3.02735 -0.88036,-1.0606 -0.89576,-1.95448 -0.0644,-3.50781 0.61357,-1.14653 0.84274,-2.52386 0.50976,-3.0625 -0.33293,-0.53863 -0.23729,-0.98047 0.21289,-0.98047 z m 12.77149,3.07032 c 0.22955,0.0315 0.52991,0.49408 0.87695,1.39844 0.30981,0.80739 0.13342,1.73352 -0.39258,2.0586 -0.52596,0.32503 -0.95507,-0.3363 -0.95507,-1.46876 0,-1.35814 0.17556,-2.02877 0.4707,-1.98828 z m -11.18164,13.46288 c 0.42412,0.0117 0.89317,0.2043 1.3789,0.60743 0.67956,0.56398 2.15683,0.7325 3.28321,0.375 2.90067,-0.92067 2.76728,2.86768 -0.17383,4.92773 -1.88701,1.32182 -5.51841,2.12684 -5.89258,1.30664 -0.0627,-0.1375 -0.26843,-1.58458 -0.45703,-3.2168 -0.28188,-2.44029 0.58896,-4.0352 1.86133,-4 z m 27.41015,2.46875 c 0.43968,0.001 0.84931,2.70123 0.91016,6 0.10757,5.83594 -0.0586,6.79662 -0.90234,5.24805 -0.78962,-1.4514 -0.79755,-11.25004 -0.008,-11.24805 z m 441.34766,0.52735 c 0.38854,0.24012 0.8003,6.18137 0.91406,13.20312 0.11362,7.02174 0.50486,20.79934 0.8711,30.61524 0.63817,17.09841 0.0963,23.11709 -1.32422,14.70898 -0.91654,-5.42485 -1.33896,-59.06999 -0.46094,-58.52734 z m 38.80078,23.81861 c 1.21643,-0.0248 2.84857,0.0439 5.00781,0.19726 6.67968,0.47452 7.91687,0.87242 9.8086,3.15821 1.19059,1.43854 2.61667,4.45721 3.16992,6.70703 2.07409,8.43397 3.32425,15.76365 2.78125,16.30664 -0.30886,0.30887 -4.64495,0.7308 -9.63672,0.9375 l -9.07617,0.375 -2.37109,-5.26367 c -2.27819,-5.05866 -4.02056,-18.32806 -2.81836,-21.46094 0.23551,-0.61371 1.10738,-0.91563 3.13476,-0.95703 z m -479.95508,22.78329 c 0.86442,0.0496 1.10743,0.77048 1.10743,2.18359 0,1.68661 -1.11196,2.90736 -4.09571,4.5 -4.73242,2.52604 -5.52129,2.64617 -6.15039,0.93555 -0.81218,-2.20862 0.33907,-3.75821 4.29688,-5.77734 2.48993,-1.27026 3.97737,-1.89139 4.84179,-1.8418 z m 500.81446,7.28711 c 0.88745,-0.0851 1.93142,0.7964 4.52148,3.08398 5.51792,4.8735 7.72159,7.6073 7.74805,9.61524 0.0289,2.10138 -6.09929,6.1114 -12.66406,8.28516 -2.85317,0.94468 -6.85367,3.04098 -8.88868,4.6582 -2.03501,1.61722 -4.34514,2.93945 -5.13476,2.93945 -0.78962,0 -3.05235,1.80001 -5.02735,4 -2.24454,2.50027 -4.46563,4 -5.92578,4 -2.40941,0 -2.67881,-0.34924 -2.4082,-3.13672 0.0985,-1.01442 -1.05646,-2.06023 -3.03516,-2.75 -4.09322,-1.42692 -3.79225,-1.50884 -4.86718,1.31836 -0.85263,2.24262 -1.16497,2.34206 -3.9961,1.27344 -1.7057,-0.64384 -2.86241,-1.69698 -2.60351,-2.37109 0.27413,-0.71441 -1.05498,-1.69978 -3.23047,-2.39454 -2.03267,-0.64913 -4.88852,-2.29176 -6.3457,-3.65039 -2.51426,-2.34406 -2.70585,-2.37572 -3.75,-0.6289 -1.04225,1.74361 -1.20855,1.71307 -3.14454,-0.57422 -1.23666,-1.46124 -1.77212,-3.04079 -1.35546,-4 0.37865,-0.87186 0.98236,-3.38595 1.34179,-5.58594 0.54747,-3.35103 0.77436,-3.6504 1.39258,-1.84765 0.62876,1.83341 2.01058,2.33265 9.33984,3.37304 4.7311,0.672 10.81767,0.9576 13.52539,0.63672 4.19415,-0.49674 5.55769,-1.25553 9.21094,-5.12305 4.55222,-4.81927 9.09368,-6.04724 11.52539,-3.11718 0.64929,0.78232 2.49638,1.88241 4.10547,2.44336 2.51804,0.87778 3.13637,0.71863 4.44141,-1.14454 0.83395,-1.19065 1.51758,-3.11972 1.51758,-4.28711 0,-1.16732 0.89027,-2.92921 1.97851,-3.91406 0.71989,-0.65149 1.19605,-1.05047 1.72852,-1.10156 z m -58.50586,29.28512 c 0.68399,0.0314 1.3564,0.23415 1.93554,0.64257 0.90067,0.63515 3.31808,2.48738 5.37305,4.11719 5.24394,4.15888 21.58797,9.86532 28.5293,9.96094 5.02363,0.0692 6.43576,-0.4594 15.17187,-5.67383 5.29837,-3.16248 10.45612,-5.76235 11.46094,-5.78125 1.00486,-0.0175 2.69994,-0.6925 3.76758,-1.5 3.69846,-2.79738 4.56055,-1.89172 4.56055,4.79688 v 6.26367 l -6.75,3.10156 c -3.71252,1.70555 -10.57499,4.60593 -15.25,6.44531 -4.67498,1.83939 -9.17501,3.86204 -10,4.4961 -2.83321,2.1775 -7.34572,2.26672 -10.74219,0.21289 -3.04955,-1.84407 -5.07619,-2.52946 -8.00781,-2.70899 -0.6875,-0.0421 -1.25,-0.75117 -1.25,-1.57617 0,-0.89416 -0.92008,-1.5 -2.27735,-1.5 -2.75799,0 -12.72949,-7.26896 -14.48633,-10.56055 -0.74196,-1.39011 -1.84524,-2.14403 -2.67382,-1.82617 -1.60982,0.61777 -3.5625,-2.44159 -3.5625,-5.58008 0,-1.98623 2.14919,-3.42441 4.20117,-3.33007 z m -2.2793,14.52119 c 0.47561,-0.0227 1.06091,0.52657 2.00391,1.74414 1.05112,1.35727 2.15618,3.69782 2.45703,5.20313 0.30489,1.52439 1.78129,3.49703 3.33203,4.45117 1.53124,0.94208 7.81435,5.01209 13.96289,9.04492 6.14854,4.03283 11.886,7.33203 12.75,7.33203 0.90418,0 1.57227,0.84879 1.57227,2 0,2.14171 -2.41786,2.65459 -4.95313,1.05078 -0.79873,-0.50532 -1.84526,-0.67597 -2.32617,-0.3789 -0.48087,0.29718 -1.74262,-0.38945 -2.80274,-1.52735 -1.06012,-1.1379 -3.70749,-2.54848 -5.88476,-3.13476 -4.28995,-1.15518 -15.0332,-10.78915 -15.0332,-13.48047 0,-0.8329 -1.30692,-2.67831 -2.9043,-4.10156 -3.25187,-2.89758 -4.28729,-5.53571 -2.9668,-7.56641 0.26192,-0.40282 0.5076,-0.62308 0.79297,-0.63672 z m 0.23438,13.98827 c 0.18559,-0.005 0.68122,0.68625 1.46093,2.125 0.84582,1.5611 1.29102,3.08593 0.98828,3.38867 -0.30266,0.30267 -1.01274,-0.66528 -1.57812,-2.15234 -0.83585,-2.19846 -1.10972,-3.35545 -0.87109,-3.36133 z m 5.36523,57.74024 c 0.14569,0.0281 0.33667,0.38148 0.58594,1.00586 1.10763,2.77417 0.80021,12.63788 -0.35742,11.46679 -0.41262,-0.41726 -0.72152,-3.72093 -0.6875,-7.34179 0.0354,-3.67784 0.13847,-5.19262 0.45898,-5.13086 z m -461.1875,31.74996 c 3.38575,-0.0856 4.62063,0.76242 4.65039,2.98046 0.0178,1.37568 -4.26901,1.41631 -8.23437,0.0781 -4.09784,-1.38285 -3.33783,-2.50915 2,-2.96484 0.57428,-0.049 1.1003,-0.0815 1.58398,-0.0937 z m 28.81836,14.4414 c 3.02399,-0.0354 7.30148,0.0894 13.84766,0.3086 10.17501,0.34072 19.625,0.8208 21,1.06836 7.7252,1.39011 63.04995,4.07667 113.5,5.51171 50.565438,1.4383 93.392071,2.82296 121.9999956,3.94336 13.7499964,0.53851 39.6250254,1.21635 57.5000004,1.50586 57.862374,0.93759 89.481714,1.70558 90.277344,2.19336 0.42811,0.26249 3.72019,0.16248 7.31641,-0.22265 l 6.53906,-0.70118 -0.57813,-3.625 c -0.5639,-3.54017 0.67928,-7.22497 1.99414,-5.91015 0.36257,0.36261 0.72494,3.93334 0.80469,7.93359 0.13614,6.82235 -0.008,7.35073 -2.35351,8.53516 -2.78899,1.40863 -46.59129,1.46681 -62.000004,0.082 -4.674974,-0.42028 -9.475982,-0.54084 -10.667969,-0.26758 -1.191988,0.27326 -2.317071,0.0889 -2.5,-0.41015 -0.183005,-0.49909 -11.132036,-1.18032 -24.332031,-1.51368 -57.2243149,-1.44593 -99.712484,-2.6806 -123,-3.57226 -13.749997,-0.52649 -35.349996,-1.22058 -47.999996,-1.54297 -12.65001,-0.32236 -41.00002,-1.25091 -63,-2.06445 -22.00003,-0.81355 -52.82502,-1.73872 -68.5,-2.05469 -15.67503,-0.31608 -30.97498,-0.65974 -34,-0.76367 -10.94332,-0.3761 -13.10035,-3.09434 -5.25,-6.61524 2.80129,-1.25636 4.36236,-1.75942 9.40234,-1.81836 z m -17.77149,9.97071 c 0.36044,-0.0222 0.80781,0.005 1.35938,0.0684 1.65343,0.19083 2.8739,1.0109 3.07422,2.06641 0.25772,1.35904 -0.35545,1.75 -2.74219,1.75 -2.43957,0 -3.07226,-0.42609 -3.07226,-2.06641 0,-1.24725 0.29961,-1.75177 1.38085,-1.81835 z"
       transform="scale(0.26458333)"
       id="path72"
       inkscape:connector-curvature="0"
       sodipodi:nodetypes="ssscccccscccccccscccccsccccccscscccccccscsccccsccccscccccsccccscssccccccssccccccsccccccscccscccccccscccscccccscsccccsccccccscccccsssssscccccssccsccccsccscccscssccsccssccscccsccccscccscscscccccccsscccscccccccccsccccccscscccssccscsccsssccccccscsscccccccssscccscsscccccccsccccscccccscsccccssscscsscccccccsssccccsscccccccscscccscsccccccsssccscccccccccsccccsscccccccsscscccscsscscccccccccssssccccccsscscscsccscccssccsscccccccccccscccccccccccsccccccccccccsccscccccccscccccccccccccccccccccccccccccccscccssccscsccssssscsscsscccscccscccsscccsccccsscssccssccscccsscccscsccccsccssssssccccscccssscccccccscsccccsccccsccscccsccscccssssscsscccccccscssscsccssscccccsscsssccscssscccccsscscsccsscccccccccccccccccccccsccsccccccccccccccccccccscccccccccccccscsscccccccccsccccsccccccccsscc" />
  </g>
</svg>
